<svg width="48" height="48" viewBox="0 0 48 48" fill="none" xmlns="http://www.w3.org/2000/svg">
<path d="M3.54517 44.0862L6.39933 33.665C4.63898 30.6153 3.71284 27.1552 3.71397 23.6108C3.71848 12.5219 12.7426 3.50049 23.8318 3.50049C29.2131 3.50311 34.2639 5.59731 38.0627 9.39872C41.8603 13.2001 43.9515 18.2529 43.9496 23.627C43.9447 34.7151 34.9191 43.738 23.8318 43.738C23.831 43.738 23.8326 43.738 23.8318 43.738H23.8231C20.4565 43.7367 17.1483 42.8921 14.2098 41.2897L3.54517 44.0862Z" fill="white"/>
<path d="M23.8382 6.89758C14.6149 6.89758 7.11411 14.3956 7.11072 23.6118C7.10935 26.7701 7.9932 29.8462 9.66689 32.5078L10.0648 33.1401L8.37517 39.3081L14.7038 37.6487L15.3149 38.0108C17.8816 39.5342 20.8243 40.3397 23.8254 40.3412H23.8317C33.048 40.3412 40.5487 32.8424 40.5525 23.6254C40.5541 19.159 38.8167 14.9589 35.6596 11.7995C32.5025 8.64018 28.3047 6.89947 23.8382 6.89758Z" fill="url(#paint0_linear_147648_1354)"/>
<path fill-rule="evenodd" clip-rule="evenodd" d="M18.8039 15.2031C18.4272 14.3663 18.0308 14.3493 17.6728 14.3346C17.3797 14.3222 17.0444 14.3229 16.7094 14.3229C16.374 14.3229 15.8296 14.4488 15.3692 14.9518C14.9083 15.4548 13.6096 16.6707 13.6096 19.1439C13.6096 21.6172 15.411 24.0068 15.6619 24.3425C15.9132 24.6778 19.1393 29.9152 24.2489 31.9299C28.4949 33.6043 29.3589 33.2712 30.2809 33.1876C31.2025 33.1039 33.2549 31.9717 33.6735 30.798C34.0925 29.6243 34.0925 28.6186 33.967 28.4084C33.8411 28.1985 33.5062 28.0731 33.0032 27.8217C32.5005 27.5704 30.0292 26.3542 29.5684 26.1865C29.1076 26.0188 28.7726 25.9352 28.4373 26.4382C28.1023 26.9412 27.1396 28.0731 26.8461 28.4084C26.553 28.7441 26.2598 28.7859 25.7568 28.5346C25.2542 28.2826 23.6351 27.7524 21.7146 26.0399C20.2203 24.7076 19.2116 23.0622 18.9181 22.5591C18.625 22.0561 18.8868 21.7841 19.1389 21.5335C19.3646 21.3082 19.6415 20.9465 19.8932 20.653C20.1438 20.3595 20.2278 20.15 20.3951 19.815C20.5628 19.4793 20.4791 19.1858 20.3533 18.9344C20.2278 18.6831 19.2508 16.1971 18.8039 15.2031Z" fill="white"/>
<defs>
<linearGradient id="paint0_linear_147648_1354" x1="23.4912" y1="8.90456" x2="23.6608" y2="37.4841" gradientUnits="userSpaceOnUse">
<stop stop-color="#57D163"/>
<stop offset="1" stop-color="#23B33A"/>
</linearGradient>
</defs>
</svg>
